General
Complete name                    : Mystic_River.mkv
Format                           : Matroska
File size                        : 2.36 GiB
Duration                         : 2h 12mn
Overall bit rate                 : 2 553 Kbps


Video
ID                               : 1
Format                           : AVC
Duration                         : 2h 12mn
Bit rate                         : 2 118 Kbps
Nominal bit rate                 : 2 151 Kbps
Width                            : 720 pixels
Height                           : 426 pixels
Display aspect ratio             : 2.40:1
Frame rate                       : 25.000 fps
Resolution                       : 8 bits
Colorimetry                      : 4:2:0
Scan type                        : Progressive
Bits/(Pixel*Frame)               : 0.276
Stream size                      : 1.96 GiB (83%)
Writing library                  : x264 core 79


Audio
ID                               : 2
Format                           : AC-3
Format/Info                      : Audio Coding 3
Codec ID                         : A_AC3
Duration                         : 2h 12mn
Bit rate mode                    : Constant
Bit rate                         : 384 Kbps
Channel(s)                       : 6 channels
Channel positions                : Front: L C R, Surround: L R, LFE
Sampling rate                    : 48.0 KHz
Stream size                      : 363 MiB (15%)
Language                         : English

Text #1
Language                         : Swedish

Text #2
Language                         : Norwegian

Text #3
Language                         : Danish

Text #4
Language                         : Finnish

Text #5
Language                         : Icelandic


